<?xml version="1.0" encoding="utf-8"?>
<!-- Generator: Adobe Illustrator 19.0.0, SVG Export Plug-In . SVG Version: 6.00 Build 0)  -->
<svg version="1.1" id="Calque_1" xmlns="http://www.w3.org/2000/svg" xmlns:xlink="http://www.w3.org/1999/xlink" x="0px" y="0px"
	 viewBox="0 0 500 500" style="enable-background:new 0 0 500 500;" xml:space="preserve">
<style type="text/css">
	.st0{fill:#FF5EF7;}
</style>
<path id="XMLID_2_" class="st0" d="M263.5,119.8l73.8,73.8c5.1,5.1,5.1,13.3,0,18.4L325,224.3c-5.1,5.1-13.3,5.1-18.4,0l-52.3-52.2
	L202,224.3c-5.1,5.1-13.3,5.1-18.4,0L171.3,212c-5.1-5.1-5.1-13.3,0-18.4l73.8-73.8C250.2,114.7,258.4,114.7,263.5,119.8
	L263.5,119.8z"/>
<path id="XMLID_4_" class="st0" d="M137.7,399l-73.8-73.8c-5.1-5.1-5.1-13.3,0-18.4l12.2-12.3c5.1-5.1,13.3-5.1,18.4,0l52.3,52.2
	l52.3-52.2c5.1-5.1,13.3-5.1,18.4,0l12.3,12.2c5.1,5.1,5.1,13.3,0,18.4l-73.8,73.8C151,404.1,142.8,404.1,137.7,399L137.7,399z"/>
<path id="XMLID_5_" class="st0" d="M351,399l-73.8-73.8c-5.1-5.1-5.1-13.3,0-18.4l12.2-12.3c5.1-5.1,13.3-5.1,18.4,0l52.3,52.2
	l52.3-52.2c5.1-5.1,13.3-5.1,18.4,0l12.3,12.2c5.1,5.1,5.1,13.3,0,18.4l-73.8,73.8C364.3,404.1,356.1,404.1,351,399L351,399z"/>
</svg>
