<?xml version="1.0" encoding="utf-8"?>
<!-- Generator: Adobe Illustrator 19.0.0, SVG Export Plug-In . SVG Version: 6.00 Build 0)  -->
<svg version="1.1" id="Calque_1" xmlns="http://www.w3.org/2000/svg" xmlns:xlink="http://www.w3.org/1999/xlink" x="0px" y="0px"
	 viewBox="0 0 500 500" style="enable-background:new 0 0 500 500;" xml:space="preserve">
<style type="text/css">
	.st0{fill:#FF5EF7;}
</style>
<path id="XMLID_4_" class="st0" d="M141.3,147l70.2,70.2c4.9,4.9,4.9,12.7,0,17.5l-11.7,11.7c-4.9,4.9-12.7,4.9-17.5,0l-49.8-49.7
	l-49.8,49.8c-4.9,4.9-12.7,4.9-17.5,0l-11.7-11.7c-4.9-4.9-4.9-12.7,0-17.5l70.2-70.2C128.6,142.1,136.4,142.1,141.3,147L141.3,147z
	 M123.7,47.9l-70.2,70.2c-4.9,4.9-4.9,12.7,0,17.5l11.7,11.7c4.9,4.9,12.7,4.9,17.5,0l49.8-49.8l49.8,49.8c4.9,4.9,12.7,4.9,17.5,0
	l11.7-11.7c4.9-4.9,4.9-12.7,0-17.5l-70.2-70.2C136.4,43,128.6,43,123.7,47.9L123.7,47.9z"/>
<path id="XMLID_2_" class="st0" d="M365.1,353l-70.2-70.2c-4.9-4.9-4.9-12.7,0-17.5l11.7-11.7c4.9-4.9,12.7-4.9,17.5,0l49.8,49.7
	l49.8-49.8c4.9-4.9,12.7-4.9,17.5,0l11.7,11.7c4.9,4.9,4.9,12.7,0,17.5L382.6,353C377.8,357.9,369.9,357.9,365.1,353L365.1,353z
	 M382.6,452.1l70.2-70.2c4.9-4.9,4.9-12.7,0-17.5l-11.7-11.7c-4.9-4.9-12.7-4.9-17.5,0l-49.8,49.8l-49.8-49.8
	c-4.9-4.9-12.7-4.9-17.5,0L295,364.5c-4.9,4.9-4.9,12.7,0,17.5l70.2,70.2C369.9,457,377.8,457,382.6,452.1L382.6,452.1z"/>
</svg>
