<?xml version="1.0" encoding="utf-8"?>
<!-- Generator: Adobe Illustrator 19.0.0, SVG Export Plug-In . SVG Version: 6.00 Build 0)  -->
<svg version="1.1" id="Calque_1" xmlns="http://www.w3.org/2000/svg" xmlns:xlink="http://www.w3.org/1999/xlink" x="0px" y="0px"
	 viewBox="0 0 500 500" style="enable-background:new 0 0 500 500;" xml:space="preserve">
<style type="text/css">
	.st0{fill:#FF5EF7;}
</style>
<path id="XMLID_4_" class="st0" d="M327.7,353.1l30.1-30.1c5.2-5.2,5.2-13.7,0-18.9l-54.3-54.3l54.3-54.3c5.2-5.2,5.2-13.7,0-18.9
	l-30.1-30.1c-5.2-5.2-13.7-5.2-18.9,0l-54.3,54.3l-54.3-54.3c-5.2-5.2-13.7-5.2-18.9,0l-30.1,30.1c-5.2,5.2-5.2,13.7,0,18.9
	l54.3,54.3l-54.3,54.3c-5.2,5.2-5.2,13.7,0,18.9l30.1,30.1c5.2,5.2,13.7,5.2,18.9,0l54.3-54.3l54.3,54.3
	C314,358.3,322.5,358.3,327.7,353.1z"/>
</svg>
